<?xml version="1.0" encoding="iso-8859-1"?>
<!-- Generator: Adobe Illustrator 19.0.0, SVG Export Plug-In . SVG Version: 6.00 Build 0)  -->
<svg xmlns="http://www.w3.org/2000/svg" xmlns:xlink="http://www.w3.org/1999/xlink" version="1.1" id="Capa_1" x="0px" y="0px" viewBox="0 0 512 512" style="enable-background:new 0 0 512 512;" xml:space="preserve" width="512px" height="512px">
<g>
	<g>
		<path d="M120,212.002c-30.872,0-56,25.128-56,56c0,4.424,3.576,8,8,8s8-3.576,8-8c0-22.056,17.944-40,40-40    c22.056,0,40,17.944,40,40c0,4.424,3.576,8,8,8s8-3.576,8-8C176,237.13,150.872,212.002,120,212.002z" fill="#1c4bad"/>
	</g>
</g>
<g>
	<g>
		<path d="M511.16,200.426l-5.4-10.8l3.848-3.8c1.92-1.888,2.76-4.624,2.232-7.272c-0.52-2.64-2.344-4.84-4.848-5.848    c-1.672-0.672-41.736-16.44-144.064-24.504c-17.432-12.992-66.248-48.2-82.928-48.2h-96c-31.528,0-114.12,40.184-129.88,48H16    c-4.424,0-8,3.576-8,8v20.688l-5.656,5.656C0.84,183.842,0,185.874,0,188.002v56c0,2.128,0.84,4.16,2.344,5.656l24,24    c3.128,3.128,8.184,3.128,11.312,0c3.128-3.128,3.128-8.184,0-11.312L16,240.69v-49.376l5.656-5.656    C23.16,184.162,24,182.13,24,180.002v-16h32c1.24,0,2.472-0.288,3.576-0.84c26.24-13.12,99.736-47.16,124.424-47.16h96    c7.968,0,45.32,23.992,75.2,46.4c1.208,0.912,2.664,1.456,4.176,1.576c70.52,5.416,111.408,14.68,129.808,19.832    c-1.432,2.312-1.6,5.256-0.344,7.768L496,205.89v54.112h-48c-4.424,0-8,3.576-8,8s3.576,8,8,8h56c4.424,0,8-3.576,8-8v-64    C512,202.762,511.712,201.53,511.16,200.426z" fill="#1c4bad"/>
	</g>
</g>
<g>
	<g>
		<path d="M352,260.002H168c-4.424,0-8,3.576-8,8s3.576,8,8,8h184c4.424,0,8-3.576,8-8S356.424,260.002,352,260.002z" fill="#1c4bad"/>
	</g>
</g>
<g>
	<g>
		<path d="M360,148.002H192.664l-30.144-5.024l34.6-28.832c3.392-2.824,3.856-7.872,1.024-11.272    c-2.824-3.392-7.856-3.848-11.272-1.024l-48,40c-2.4,2.008-3.416,5.224-2.592,8.24c0.816,3.016,3.32,5.288,6.408,5.8l48,8    c0.432,0.072,0.872,0.112,1.312,0.112h168c4.424,0,8-3.576,8-8S364.424,148.002,360,148.002z" fill="#1c4bad"/>
	</g>
</g>
<g>
	<g>
		<path d="M208,180.002h-16c-4.424,0-8,3.576-8,8s3.576,8,8,8h16c4.424,0,8-3.576,8-8S212.424,180.002,208,180.002z" fill="#1c4bad"/>
	</g>
</g>
<g>
	<g>
		<path d="M72,260.002H32c-4.424,0-8,3.576-8,8s3.576,8,8,8h40c4.424,0,8-3.576,8-8S76.424,260.002,72,260.002z" fill="#1c4bad"/>
	</g>
</g>
<g>
	<g>
		<path d="M192,100.002c-4.424,0-8,3.576-8,8v48c0,4.424,3.576,8,8,8s8-3.576,8-8v-48C200,103.578,196.424,100.002,192,100.002z" fill="#1c4bad"/>
	</g>
</g>
<g>
	<g>
		<path d="M72,260.002c-4.424,0-8,3.576-8,8v56c0,4.424,3.576,8,8,8s8-3.576,8-8v-56C80,263.578,76.424,260.002,72,260.002z" fill="#1c4bad"/>
	</g>
</g>
<g>
	<g>
		<path d="M168,284.002H72c-4.424,0-8,3.576-8,8s3.576,8,8,8h96c4.424,0,8-3.576,8-8S172.424,284.002,168,284.002z" fill="#1c4bad"/>
	</g>
</g>
<g>
	<g>
		<path d="M168,260.002c-4.424,0-8,3.576-8,8v56c0,4.424,3.576,8,8,8s8-3.576,8-8v-56C176,263.578,172.424,260.002,168,260.002z" fill="#1c4bad"/>
	</g>
</g>
<g>
	<g>
		<path d="M168,316.002H72c-4.424,0-8,3.576-8,8s3.576,8,8,8h96c4.424,0,8-3.576,8-8S172.424,316.002,168,316.002z" fill="#1c4bad"/>
	</g>
</g>
<g>
	<g>
		<path d="M152,316.002c-4.424,0-8,3.576-8,8c0,46.976-13.936,72-24,72s-24-25.024-24-72c0-4.424-3.576-8-8-8s-8,3.576-8,8    c0,52.632,16.08,88,40,88s40-35.368,40-88C160,319.578,156.424,316.002,152,316.002z" fill="#1c4bad"/>
	</g>
</g>
<g>
	<g>
		<path d="M400,212.002c-30.872,0-56,25.128-56,56c0,4.424,3.576,8,8,8s8-3.576,8-8c0-22.056,17.944-40,40-40    c22.056,0,40,17.944,40,40c0,4.424,3.576,8,8,8s8-3.576,8-8C456,237.13,430.872,212.002,400,212.002z" fill="#1c4bad"/>
	</g>
</g>
<g>
	<g>
		<path d="M352,260.002c-4.424,0-8,3.576-8,8v56c0,4.424,3.576,8,8,8s8-3.576,8-8v-56C360,263.578,356.424,260.002,352,260.002z" fill="#1c4bad"/>
	</g>
</g>
<g>
	<g>
		<path d="M448,284.002h-96c-4.424,0-8,3.576-8,8s3.576,8,8,8h96c4.424,0,8-3.576,8-8S452.424,284.002,448,284.002z" fill="#1c4bad"/>
	</g>
</g>
<g>
	<g>
		<path d="M448,260.002c-4.424,0-8,3.576-8,8v56c0,4.424,3.576,8,8,8s8-3.576,8-8v-56C456,263.578,452.424,260.002,448,260.002z" fill="#1c4bad"/>
	</g>
</g>
<g>
	<g>
		<path d="M448,316.002h-96c-4.424,0-8,3.576-8,8s3.576,8,8,8h96c4.424,0,8-3.576,8-8S452.424,316.002,448,316.002z" fill="#1c4bad"/>
	</g>
</g>
<g>
	<g>
		<path d="M432,316.002c-4.424,0-8,3.576-8,8c0,46.976-13.936,72-24,72c-10.064,0-24-25.024-24-72c0-4.424-3.576-8-8-8s-8,3.576-8,8    c0,52.632,16.08,88,40,88c23.92,0,40-35.368,40-88C440,319.578,436.424,316.002,432,316.002z" fill="#1c4bad"/>
	</g>
</g>
<g>
</g>
<g>
</g>
<g>
</g>
<g>
</g>
<g>
</g>
<g>
</g>
<g>
</g>
<g>
</g>
<g>
</g>
<g>
</g>
<g>
</g>
<g>
</g>
<g>
</g>
<g>
</g>
<g>
</g>
</svg>
