<?xml version="1.0" encoding="UTF-8"?>
<svg width="419px" height="419px" viewBox="0 0 419 419" version="1.1" xmlns="http://www.w3.org/2000/svg" xmlns:xlink="http://www.w3.org/1999/xlink">
    <!-- Generator: Sketch 49.3 (51167) - http://www.bohemiancoding.com/sketch -->
    <title>flycar logo</title>
    <desc>Created with Sketch.</desc>
    <defs></defs>
    <g id="Page-1" stroke="none" stroke-width="1" fill="none" fill-rule="evenodd">
        <g id="Group">
            <circle id="Oval" fill="#0C305A" cx="209.5" cy="209.5" r="209.5"></circle>
            <g id="self-driving" transform="translate(17.000000, 69.000000)" fill="#FFFFFF" fill-rule="nonzero">
                <path d="M372.656665,141.95163 C357.607046,133.827325 327.959732,124.212768 271.485686,123.369412 L227.801636,97.3314471 C217.560015,91.2270134 205.832531,88 193.887732,88 L104.093074,88 C97.6977006,88 91.3587234,90.0990527 86.2424243,93.9109623 L69.2302036,106.585954 L11.6477767,127.386744 C4.68091735,129.90262 0,136.541901 0,143.906513 L0,177.433838 C0,190.428543 10.6416614,201 23.7226635,201 L367.305005,201 C377.062367,201 385,193.113986 385,183.421741 L385,162.641866 C385.000752,153.989436 380.270958,146.061591 372.656665,141.95163 Z M93.0100156,102.874141 C96.1862718,100.507665 100.122002,99.2041607 104.093074,99.2041607 L126.971293,99.2041607 L115.65588,114.191845 C115.519024,114.373365 115.398712,114.561607 115.287422,114.752838 L85.3310553,108.596114 L93.0100156,102.874141 Z M44.9044725,189.794345 L49.5462882,180.571212 C50.6403821,178.39746 52.8390973,177.047642 55.2852056,177.047642 L94.6334856,177.047642 C97.078842,177.047642 99.2783091,178.39746 100.372403,180.570465 L105.014971,189.794345 L44.9044725,189.794345 Z M286.014953,189.794345 L290.656769,180.571212 C291.750863,178.39746 293.949578,177.047642 296.395686,177.047642 L335.743966,177.047642 C338.189323,177.047642 340.38879,178.39746 341.482884,180.570465 L346.125451,189.794345 L286.014953,189.794345 Z M367.305756,189.795839 L358.73573,189.795839 L351.571107,175.560378 C348.554265,169.566499 342.489751,165.843482 335.743966,165.843482 L296.395686,165.843482 C289.649902,165.843482 283.585388,169.566499 280.568546,175.560378 L273.403923,189.795092 L117.625249,189.795092 L110.460626,175.559631 C107.443784,169.566499 101.37927,165.842735 94.6334856,165.842735 L55.2844537,165.842735 C48.538669,165.842735 42.4741552,169.565752 39.4573134,175.559631 L32.29269,189.794345 L23.7226635,189.794345 C16.8610779,189.794345 11.2793189,184.24941 11.2793189,177.433091 L11.2793189,143.905766 C11.2793189,141.235263 12.9764804,138.828449 15.5022959,137.915623 L72.368862,117.373292 L136.459456,130.545781 C149.264491,133.177441 162.386098,134.512319 175.461085,134.512319 L222.638716,134.512319 C225.753312,134.512319 228.278376,132.003913 228.278376,128.909865 C228.278376,125.815816 225.753312,123.307411 222.638716,123.307411 L175.461085,123.307411 C163.15234,123.307411 150.79923,122.050967 138.744646,119.573936 L127.444272,117.251532 L141.06969,99.2041607 L193.88698,99.2041607 C203.787966,99.2041607 213.508483,101.879146 221.997299,106.938535 L249.460184,123.307411 L246.749388,123.307411 C243.634792,123.307411 241.109729,125.815816 241.109729,128.909865 C241.109729,132.003913 243.634792,134.512319 246.749388,134.512319 L263.379616,134.512319 C325.917424,134.512319 355.314337,145.340742 367.271167,151.795515 C371.249758,153.943123 373.720681,158.098649 373.720681,162.641119 L373.720681,183.422488 L373.721433,183.422488 C373.721433,186.936347 370.842951,189.795839 367.305756,189.795839 Z" id="Shape"></path>
                <path d="M258.395597,166 L132.604403,166 C129.509278,166 127,168.238667 127,171 C127,173.761333 129.509278,176 132.604403,176 L258.395597,176 C261.490722,176 264,173.761333 264,171 C264,168.239333 261.490722,166 258.395597,166 Z" id="Shape"></path>
                <path d="M119.399676,215 L29.6010707,215 C26.507786,215 24,217.238667 24,220 C24,222.761333 26.507786,225 29.6010707,225 L119.398929,225 C122.492214,225 125,222.761333 125,220 C125,217.238 122.492961,215 119.399676,215 Z" id="Shape"></path>
                <path d="M360.399676,215 L270.601071,215 C267.507786,215 265,217.238667 265,220 C265,222.761333 267.507786,225 270.601071,225 L360.398929,225 C363.492214,225 366,222.761333 366,220 C366,217.238 363.492961,215 360.399676,215 Z" id="Shape"></path>
                <path d="M179.425608,67.2495431 C176.239916,63.8643379 172.004987,62 167.499866,62 C162.994744,62 158.759816,63.8635764 155.574123,67.2487815 C153.474934,69.4794374 153.475651,73.0961617 155.574123,75.3268176 C157.674028,77.5574736 161.076162,77.556712 163.176067,75.3268176 C164.330657,74.0991572 165.866526,73.4236393 167.499866,73.4236393 C169.133205,73.4236393 170.668358,74.0991572 171.823664,75.3268176 C172.873617,76.4417648 174.248947,77 175.624995,77 C177.000325,77 178.376372,76.4425264 179.425608,75.3275792 C181.524797,73.0969232 181.524797,69.4809606 179.425608,67.2495431 Z" id="Shape"></path>
                <path d="M223.356483,22.5105851 C208.703797,7.9944411 189.221748,0 168.5,0 C147.778252,0 128.296203,7.9944411 113.643517,22.5105851 C111.452161,24.6815213 111.452161,28.2014175 113.643517,30.3716125 C115.834126,32.5425488 119.387131,32.5425488 121.578487,30.3716125 C134.111639,17.9552508 150.775375,11.1170612 168.5,11.1170612 C186.224625,11.1170612 202.888361,17.9552508 215.421513,30.3716125 C216.516817,31.4567101 217.953281,32 219.388998,32 C220.824714,32 222.261179,31.4574512 223.356483,30.3716125 C225.547839,28.2006763 225.547839,24.6815213 223.356483,22.5105851 Z" id="Shape"></path>
                <path d="M203.347004,44.225163 C194.306037,35.0519485 182.285275,30 169.5,30 C156.713973,30 144.693963,35.0519485 135.652996,44.225163 C133.449001,46.4613965 133.449001,50.087164 135.652996,52.322634 C137.85699,54.5588675 141.430486,54.5588675 143.633728,52.322634 C150.542939,45.3123588 159.728381,41.452203 169.5,41.452203 C179.270867,41.452203 188.456309,45.3131223 195.366272,52.322634 C196.467893,53.4411325 197.912642,54 199.356638,54 C200.800634,54 202.245383,53.4411325 203.347004,52.322634 C205.550999,50.0864005 205.550999,46.4613965 203.347004,44.225163 Z" id="Shape"></path>
            </g>
        </g>
    </g>
</svg>