<?xml version="1.0"?>
<svg xmlns="http://www.w3.org/2000/svg" height="512px" viewBox="0 -127 511.99976 511" width="512px"><path d="m511.296875 140.15625c-1.570313-6.722656-3.796875-13.269531-6.65625-19.554688-19.222656-41.558593-63.5-65.519531-108.808594-58.878906l-21.976562-17.691406c-74.492188-59.953125-181.28125-57.753906-253.238281 5.214844l-13.300782 11.628906c-7.535156-.382812-15.089844.054688-22.53125 1.292969l-4.5625-13.644531 3.808594.523437c.394531.058594.789062.085937 1.183594.085937 4.738281.011719 8.585937-3.820312 8.59375-8.554687.011718-4.300781-3.164063-7.941406-7.425782-8.519531l-41.480468-5.753906c-4.695313-.644532-9.023438 2.636718-9.671875 7.328124-.644531 4.695313 2.636719 9.023438 7.328125 9.671876l18.738281 2.570312c-.003906.070312-.003906.136719 0 .207031l6.765625 20.316407c-8.195312 2.847656-15.984375 6.757812-23.160156 11.636718-25.332032 17.128906-41.75 44.617188-44.8164065 75.042969-.9374995 9.472656 5.9804685 17.914063 15.4531245 18.851563.566407.054687 1.128907.082031 1.695313.082031h16.519531v34.304687h102.90625v-34.304687h231.542969v34.304687h102.90625v-34.304687h15.164063c7.824218.023437 15.222656-3.550781 20.074218-9.6875 4.96875-6.238281 6.792969-14.410157 4.949219-22.167969zm-260.949219-122.503906c41.007813.050781 80.777344 14.066406 112.753906 39.738281l12.003907 9.683594c-7.25 2.746093-14.171875 6.304687-20.625 10.605469h-94.90625l-28.582031-21.4375v-37.433594c6.425781-.734375 12.886718-1.121094 19.355468-1.15625zm14.949219 77.257812 68.878906.421875c-14.765625 16.546875-23.769531 37.433594-25.667969 59.53125h-43.210937zm-145.789063 94.253906h-68.601562v-17.152343h68.601562zm-1.121093-34.300781h-66.300781c4.691406-18.320312 23.34375-29.375 41.664062-24.6875 11.503906 2.945313 20.660156 11.636719 24.199219 22.972657.152343.523437.292969 1.121093.4375 1.714843zm17.417969 0c-.339844-2.320312-.847657-4.613281-1.519532-6.863281-8.542968-27.101562-37.4375-42.148438-64.542968-33.605469-18.414063 5.804688-32.03125 21.429688-35.261719 40.46875h-17.304688v-.078125c2.550781-25.382812 16.25-48.320312 37.390625-62.601562 14.058594-9.472656 30.640625-14.496094 47.59375-14.425782 20.824219-.082031 40.972656 7.40625 56.6875 21.070313 16.417969 14.296875 26.710938 34.359375 28.742188 56.035156zm34.300781-68.871093c-11.742188-10.25-25.6875-17.648438-40.761719-21.621094l2.574219-2.230469c23.351562-20.371094 51.570312-34.355469 81.921875-40.605469v43.28125l34.304687 25.726563v64.320312h-43.453125c-2.195312-26.566406-14.589844-51.246093-34.585937-68.871093zm283.855469 103.171874h-68.605469v-17.152343h68.605469zm-1.160157-34.300781h-66.261719c4.703126-18.324219 23.371094-29.359375 41.691407-24.65625 11.484375 2.949219 20.625 11.625 24.167969 22.941407.171874.589843.265624 1.15625.402343 1.714843zm40.117188-3.207031c-1.597657 2.042969-4.050781 3.226562-6.644531 3.207031h-15.925782c-.371094-2.320312-.898437-4.613281-1.585937-6.863281-8.511719-27.109375-37.394531-42.1875-64.503907-33.675781-18.460937 5.796875-32.109374 21.457031-35.328124 40.539062h-43.21875c4.695312-47.128906 46.710937-81.527343 93.839843-76.828125 30.335938 3.023438 56.789063 21.925782 69.472657 49.652344 2.386718 5.253906 4.25 10.730469 5.566406 16.351562.648437 2.660157.03125 5.472657-1.671875 7.617188zm0 0" fill="#1c4bad"/><path d="m179.539062 51.953125h17.152344v17.152344h-17.152344zm0 0" fill="#1c4bad"/><path d="m282.445312 111.984375h17.152344v17.152344h-17.152344zm0 0" fill="#1c4bad"/><path d="m42.328125 223.46875c-4.734375 0-8.574219 3.839844-8.574219 8.574219v17.152343c0 4.734376 3.839844 8.574219 8.574219 8.574219 4.738281 0 8.574219-3.839843 8.574219-8.574219v-17.152343c.003906-4.734375-3.835938-8.574219-8.574219-8.574219zm0 0" fill="#1c4bad"/><path d="m85.207031 223.46875c-4.734375 0-8.574219 3.839844-8.574219 8.574219v17.152343c0 4.734376 3.839844 8.574219 8.574219 8.574219s8.574219-3.839843 8.574219-8.574219v-17.152343c0-4.734375-3.839844-8.574219-8.574219-8.574219zm0 0" fill="#1c4bad"/><path d="m128.085938 223.46875c-4.738282 0-8.578126 3.839844-8.578126 8.574219v17.152343c0 4.734376 3.839844 8.574219 8.578126 8.574219 4.734374 0 8.574218-3.839843 8.574218-8.574219v-17.152343c0-4.734375-3.839844-8.574219-8.574218-8.574219zm0 0" fill="#1c4bad"/><path d="m376.777344 223.46875c-4.734375 0-8.574219 3.839844-8.574219 8.574219v17.152343c0 4.734376 3.839844 8.574219 8.574219 8.574219 4.738281 0 8.578125-3.839843 8.578125-8.574219v-17.152343c0-4.734375-3.839844-8.574219-8.578125-8.574219zm0 0" fill="#1c4bad"/><path d="m419.65625 223.46875c-4.734375 0-8.574219 3.839844-8.574219 8.574219v17.152343c0 4.734376 3.839844 8.574219 8.574219 8.574219 4.738281 0 8.578125-3.839843 8.578125-8.574219v-17.152343c0-4.734375-3.839844-8.574219-8.578125-8.574219zm0 0" fill="#1c4bad"/><path d="m462.535156 223.46875c-4.734375 0-8.574218 3.839844-8.574218 8.574219v17.152343c0 4.734376 3.839843 8.574219 8.574218 8.574219s8.574219-3.839843 8.574219-8.574219v-17.152343c0-4.734375-3.839844-8.574219-8.574219-8.574219zm0 0" fill="#1c4bad"/></svg>
